<svg width="3300" height="2261" xmlns="http://www.w3.org/2000/svg" xmlns:xlink="http://www.w3.org/1999/xlink" overflow="hidden"><defs><clipPath id="clip0"><rect x="550" y="83" width="3300" height="2261"/></clipPath></defs><g clip-path="url(#clip0)" transform="translate(-550 -83)"><path d="M1149.5 1302.5C1149.5 755.186 1610.42 311.5 2179 311.5 2747.58 311.5 3208.5 755.186 3208.5 1302.5 3208.5 1849.81 2747.58 2293.5 2179 2293.5 1610.42 2293.5 1149.5 1849.81 1149.5 1302.5ZM1186.86 1302.5C1186.86 1829.18 1631.06 2256.14 2179 2256.14 2726.94 2256.14 3171.14 1829.18 3171.14 1302.5 3171.14 775.82 2726.94 348.861 2179 348.861 1631.06 348.861 1186.86 775.82 1186.86 1302.5Z" stroke="#00A7D8" stroke-width="0" stroke-miterlimit="8" fill="#00A7D8" fill-rule="evenodd"/><path d="M1457 506.727 1489.98 356.747 1623.5 290 1757.02 356.747 1790 506.727 1697.6 627.002 1549.4 627.002Z" stroke="#FFDD00" stroke-width="27.5" stroke-miterlimit="8" fill="#FFFFFF" fill-rule="evenodd"/><path d="M2027 340.084 2060.27 190.549 2195 124 2329.73 190.549 2363 340.084 2269.77 460.002 2120.23 460.002Z" stroke="#FFDD00" stroke-width="27.5" stroke-miterlimit="8" fill="#FFFFFF" fill-rule="evenodd"/><path d="M2597 477.727 2630.27 327.747 2765 261 2899.73 327.747 2933 477.727 2839.77 598.002 2690.23 598.002Z" stroke="#FFDD00" stroke-width="27.5" stroke-miterlimit="8" fill="#FFFFFF" fill-rule="evenodd"/><path d="M2942 902.084 2975.27 752.549 3110 686 3244.73 752.549 3278 902.084 3184.77 1022 3035.23 1022Z" stroke="#FFDD00" stroke-width="27.5" stroke-miterlimit="8" fill="#FFFFFF" fill-rule="evenodd"/><path d="M3003 1519.08 3036.27 1369.55 3171 1303 3305.73 1369.55 3339 1519.08 3245.77 1639 3096.23 1639Z" stroke="#FFDD00" stroke-width="27.5" stroke-miterlimit="8" fill="#FFFFFF" fill-rule="evenodd"/><path d="M2757 1966.08 2790.27 1816.55 2925 1750 3059.73 1816.55 3093 1966.08 2999.77 2086 2850.23 2086Z" stroke="#FFDD00" stroke-width="27.5" stroke-miterlimit="8" fill="#FFFFFF" fill-rule="evenodd"/><path d="M2280 2203.73 2313.27 2053.75 2448 1987 2582.73 2053.75 2616 2203.73 2522.77 2324 2373.23 2324Z" stroke="#FFDD00" stroke-width="27.5" stroke-miterlimit="8" fill="#FFFFFF" fill-rule="evenodd"/><path d="M1770 2178.08 1803.27 2028.55 1938 1962 2072.73 2028.55 2106 2178.08 2012.77 2298 1863.23 2298Z" stroke="#00A13A" stroke-width="27.5" stroke-miterlimit="8" fill="#FFFFFF" fill-rule="evenodd"/><path d="M1302 1967.08 1335.27 1817.55 1470 1751 1604.73 1817.55 1638 1967.08 1544.77 2087 1395.23 2087Z" stroke="#00A13A" stroke-width="27.5" stroke-miterlimit="8" fill="#FFFFFF" fill-rule="evenodd"/><path d="M1061 1535.73 1094.27 1385.75 1229 1319 1363.73 1385.75 1397 1535.73 1303.77 1656 1154.23 1656Z" stroke="#00A13A" stroke-width="27.5" stroke-miterlimit="8" fill="#FFFFFF" fill-rule="evenodd"/><path d="M1082 936.084 1115.27 786.549 1250 720 1384.73 786.549 1418 936.084 1324.77 1056 1175.23 1056Z" stroke="#2B6DB5" stroke-width="27.5" stroke-miterlimit="8" fill="#FFFFFF" fill-rule="evenodd"/><text font-family="Arial,Arial_MSFontService,sans-serif" font-weight="400" font-size="50" transform="matrix(1 0 0 1 2650.22 434)">3. Context <tspan font-size="50" x="6.6001" y="61">Diagrams</tspan><tspan font-size="50" x="318.768" y="398">4. Behaviour </tspan><tspan font-size="50" x="342.83" y="459">Over Time </tspan><tspan font-size="50" x="377.778" y="519">Graphs </tspan><tspan font-size="50" x="395.826" y="1009">5. Enablers </tspan><tspan font-size="50" x="481.191" y="1070">and </tspan><tspan font-size="50" x="421.034" y="1130">Inhibitors</tspan><tspan font-size="50" x="-279.217" y="1699">7. Map </tspan><tspan font-size="50" x="-345.676" y="1760">Analysis and </tspan><tspan font-size="50" x="-304.701" y="1820">Narrative</tspan><tspan font-size="50" x="154.782" y="1487">6. Systems </tspan><tspan font-size="50" x="154.782" y="1548">Mapping</tspan><tspan font-size="50" x="-519.463" y="-142">2. Pig </tspan><tspan font-size="50" x="-519.463" y="-81">Model</tspan><tspan font-size="50" x="-1107.8" y="23">1. Rich </tspan><tspan font-size="50" x="-1107.8" y="84">Picture</tspan><tspan font-size="50" x="-828.114" y="1702">8. Identify </tspan><tspan font-size="50" x="-824.378" y="1763">Leverage</tspan><tspan font-size="50" x="-1284.68" y="1450">9. Stock </tspan><tspan font-size="50" x="-1296.44" y="1511">and Flow </tspan><tspan font-size="50" x="-1301.87" y="1571">Diagrams</tspan><tspan font-size="50" x="-1546.09" y="1029">10. Theory </tspan><tspan font-size="50" x="-1542.08" y="1090">of Change </tspan><tspan font-size="50" x="-1487.38" y="1150">Maps</tspan><tspan font-size="50" x="-1429.19" y="356">11. </tspan><tspan font-size="50" x="-1511.96" y="417">Monitoring </tspan><tspan font-size="50" x="-1436.34" y="477">and </tspan><tspan font-size="50" x="-1509.39" y="538">evaluation </tspan><tspan font-size="50" x="-1483.61" y="598">strategy</tspan></text><path d="M1633.5 1289.5C1633.5 998.446 1884.44 762.5 2194 762.5 2503.56 762.5 2754.5 998.446 2754.5 1289.5 2754.5 1580.55 2503.56 1816.5 2194 1816.5 1884.44 1816.5 1633.5 1580.55 1633.5 1289.5Z" stroke="#00A7D8" stroke-width="55" stroke-miterlimit="8" fill="none" fill-rule="evenodd"/><path d="M2176.69 531.836C2305.86 528.542 2413.24 630.585 2416.53 759.755 2418.52 837.716 2420.51 915.677 2422.5 993.639 2344.54 995.627 2266.58 997.615 2188.61 999.603 2059.44 1002.9 1952.06 900.854 1948.77 771.683 1945.47 642.513 2047.52 535.13 2176.69 531.836Z" stroke="#FFDD00" stroke-width="73.3333" stroke-miterlimit="8" fill="#FFFFFF" fill-rule="evenodd"/><path d="M2673.98 1458.06C2544.89 1463.61 2435.74 1363.46 2430.19 1234.37 2426.84 1156.45 2423.49 1078.54 2420.14 1000.62 2498.06 997.273 2575.97 993.925 2653.89 990.576 2782.98 985.029 2892.13 1085.18 2897.68 1214.27 2903.22 1343.37 2803.07 1452.52 2673.98 1458.06Z" stroke="#FFDD00" stroke-width="73.3333" stroke-miterlimit="8" fill="#FFFFFF" fill-rule="evenodd"/><path d="M2006.5 1738.5C2006.5 1617.55 2105.89 1519.5 2228.5 1519.5 2351.11 1519.5 2450.5 1617.55 2450.5 1738.5 2450.5 1859.45 2351.11 1957.5 2228.5 1957.5 2105.89 1957.5 2006.5 1859.45 2006.5 1738.5Z" stroke="#00A13A" stroke-width="73.3333" stroke-miterlimit="8" fill="#FFFFFF" fill-rule="evenodd"/><path d="M1484.5 1210C1484.5 1082.15 1589.04 978.5 1718 978.5 1846.96 978.5 1951.5 1082.15 1951.5 1210 1951.5 1337.85 1846.96 1441.5 1718 1441.5 1589.04 1441.5 1484.5 1337.85 1484.5 1210Z" stroke="#2B6DB5" stroke-width="73.3333" stroke-miterlimit="8" fill="#FFFFFF" fill-rule="evenodd"/><text font-family="Arial,Arial_MSFontService,sans-serif" font-weight="700" font-size="55" transform="matrix(1 0 0 1 2077.22 763)">Confirm <tspan font-size="55" x="-4.85815" y="66">the Goal</tspan><tspan font-size="55" x="449.381" y="427">Understand </tspan><tspan font-size="55" x="560.825" y="493">the </tspan><tspan font-size="55" x="504.679" y="559">System</tspan><tspan font-size="55" x="19.0303" y="967">Co</tspan><tspan font-size="55" x="92.3635" y="967">-</tspan><tspan font-size="55" x="110.697" y="967">design</tspan><tspan font-size="55" x="104.67" y="1033">and</tspan><tspan font-size="55" x="97.2219" y="1099">Test</tspan><tspan font-size="55" x="-505.93" y="418">Implement </tspan><tspan font-size="55" x="-526.28" y="484">Monitor and </tspan><tspan font-size="55" x="-481.295" y="550">Evaluate</tspan><tspan font-size="64" x="12.5784" y="452">Systems </tspan><tspan font-size="64" x="12.5784" y="529">Thinking </tspan><tspan font-size="64" x="12.5784" y="606">Journey</tspan></text><path d="M2553.06 1675.04 2576.33 1574.23 2602.18 1615.59 2594.42 1649.2 2628.02 1656.96 2653.87 1698.32Z" stroke="#00A7D8" stroke-width="4.58333" stroke-miterlimit="8" stroke-opacity="0.501961" fill="#00A7D8" fill-rule="evenodd"/><path d="M1769.62 1637.12 1872.94 1631.71 1840.3 1667.95 1805.86 1669.76 1807.67 1704.2 1775.03 1740.44Z" stroke="#00A7D8" stroke-width="4.58333" stroke-miterlimit="8" stroke-opacity="0.501961" fill="#00A7D8" fill-rule="evenodd"/><path d="M1880.07 852.032 1856.6 952.8 1830.83 911.39 1838.65 877.799 1805.06 869.977 1779.3 828.567Z" stroke="#00A7D8" stroke-width="4.58333" stroke-miterlimit="8" stroke-opacity="0.501961" fill="#00A7D8" fill-rule="evenodd"/><path d="M2581.55 900.024 2481.15 925.055 2506.27 883.248 2539.74 874.904 2531.4 841.44 2556.52 799.633Z" stroke="#00A7D8" stroke-width="4.58333" stroke-miterlimit="8" stroke-opacity="0.501961" fill="#00A7D8" fill-rule="evenodd"/></g></svg>